<svg id="Layer_1" data-name="Layer 1" xmlns="http://www.w3.org/2000/svg" viewBox="0 0 156.16248 60"><title>logo</title><rect width="60" height="60" rx="11.23627" ry="11.23627" fill="#0984e3"/><path d="M34.59436,43.3092a12.16888,12.16888,0,0,1-6.17285-1.55468,11.54692,11.54692,0,0,1-4.30762-4.30664L53.24573,27.23352A21.66979,21.66979,0,0,0,46.62952,15.465a17.669,17.669,0,0,0-12.03516-4.21924,20.83953,20.83953,0,0,0-10.30273,2.62011,19.66812,19.66812,0,0,0-7.417,7.10547,18.78974,18.78974,0,0,0-2.709,9.90381A20.17869,20.17869,0,0,0,16.653,40.91077a17.76537,17.76537,0,0,0,7.06153,6.97265,21.749,21.749,0,0,0,10.70215,2.53125,21.44106,21.44106,0,0,0,6.61718-1.10937,25.71685,25.71685,0,0,0,6.35059-3.06446l-3.81934-6.1289A14.99307,14.99307,0,0,1,34.59436,43.3092Z" transform="translate(-3.70569 -0.8302)" fill="#fff"/><path d="M86.69824,39.72754l1.85938,2.9834a12.49881,12.49881,0,0,1-3.09229,1.49219,10.41163,10.41163,0,0,1-3.22168.541,10.59393,10.59393,0,0,1-5.21094-1.23242,8.65318,8.65318,0,0,1-3.43847-3.39551,9.8258,9.8258,0,0,1-1.21045-4.88672,9.14567,9.14567,0,0,1,1.31885-4.82129,9.576,9.576,0,0,1,3.61084-3.45947,10.146,10.146,0,0,1,5.0166-1.27588,8.602,8.602,0,0,1,5.85986,2.0542,10.55109,10.55109,0,0,1,3.22168,5.73L77.22705,38.42969a5.61993,5.61993,0,0,0,2.09766,2.09765,5.92436,5.92436,0,0,0,3.00537.75684A7.29637,7.29637,0,0,0,86.69824,39.72754ZM77.9624,30.603a6.24024,6.24024,0,0,0-1.6001,4.41064,8.59283,8.59283,0,0,0,.043.99414l10.42237-3.84863a5.9571,5.9571,0,0,0-1.83789-2.37793,4.73953,4.73953,0,0,0-2.96241-.9082A5.29687,5.29687,0,0,0,77.9624,30.603Z" transform="translate(-3.70569 -0.8302)" fill="#2d3436"/><path d="M97.20654,10.79639V44.31152h-4.022V10.79639Z" transform="translate(-3.70569 -0.8302)" fill="#2d3436"/><path d="M104.99023,10.79639V44.31152h-4.022V10.79639Z" transform="translate(-3.70569 -0.8302)" fill="#2d3436"/><path d="M120.40674,44.18164a10.5709,10.5709,0,0,1-3.395.5625,10.87672,10.87672,0,0,1-5.12451-1.168,8.405,8.405,0,0,1-3.45948-3.30859,9.74227,9.74227,0,0,1-1.23242-4.95117,9.27911,9.27911,0,0,1,1.29737-4.90821,8.96576,8.96576,0,0,1,3.45947-3.3081,9.67625,9.67625,0,0,1,4.67041-1.16748,10.21044,10.21044,0,0,1,6.79,2.24853l-2.03272,2.63819a8.78665,8.78665,0,0,0-1.98925-1.103,6.40834,6.40834,0,0,0-2.42188-.4541,5.52006,5.52006,0,0,0-2.91895.80029,5.70929,5.70929,0,0,0-2.07617,2.18359,6.296,6.296,0,0,0-.75683,3.07032,6.19612,6.19612,0,0,0,9.99023,4.7998l2.07568,2.50879A9.02692,9.02692,0,0,1,120.40674,44.18164Z" transform="translate(-3.70569 -0.8302)" fill="#2d3436"/><path d="M136.88379,44.18164a10.57162,10.57162,0,0,1-3.39551.5625,10.87672,10.87672,0,0,1-5.12451-1.168,8.40493,8.40493,0,0,1-3.45947-3.30859,9.74217,9.74217,0,0,1-1.23242-4.95117,9.2791,9.2791,0,0,1,1.29736-4.90821,8.96583,8.96583,0,0,1,3.45947-3.3081,9.67679,9.67679,0,0,1,4.6709-1.16748,10.20865,10.20865,0,0,1,6.78906,2.24853l-2.03222,2.63819a8.78672,8.78672,0,0,0-1.98926-1.103,6.40653,6.40653,0,0,0-2.42188-.4541,5.51877,5.51877,0,0,0-2.91894.80029,5.70914,5.70914,0,0,0-2.07617,2.18359,6.29585,6.29585,0,0,0-.75684,3.07032,6.19612,6.19612,0,0,0,9.99023,4.7998l2.0752,2.50879A9.01146,9.01146,0,0,1,136.88379,44.18164Z" transform="translate(-3.70569 -0.8302)" fill="#2d3436"/><path d="M141.42383,30.36523a9.14323,9.14323,0,0,1,3.5459-3.438,10.424,10.424,0,0,1,5.125-1.2544,10.17384,10.17384,0,0,1,5.08105,1.2544,8.95329,8.95329,0,0,1,3.46,3.4165,9.59907,9.59907,0,0,1,1.23242,4.84277,9.71553,9.71553,0,0,1-1.23242,4.86524,8.87091,8.87091,0,0,1-3.48144,3.43847,10.38686,10.38686,0,0,1-5.14551,1.25391,10.653,10.653,0,0,1-5.06055-1.18945,8.76622,8.76622,0,0,1-3.52441-3.35156,9.6845,9.6845,0,0,1-1.27539-5.01661A9.38459,9.38459,0,0,1,141.42383,30.36523Zm3.5459,7.97852a5.78943,5.78943,0,0,0,2.07617,2.249,5.687,5.687,0,0,0,7.07031-.95214,6.24057,6.24057,0,0,0,1.64356-4.41114,6.31737,6.31737,0,0,0-1.64356-4.43164,5.38781,5.38781,0,0,0-4.15137-1.79492,5.27793,5.27793,0,0,0-2.94043.84326,6.011,6.011,0,0,0-2.05468,2.27051,6.7827,6.7827,0,0,0,0,6.227Z" transform="translate(-3.70569 -0.8302)" fill="#2d3436"/></svg>